<svg width="217" height="80" viewBox="0 0 217 80" fill="none" xmlns="http://www.w3.org/2000/svg">
<path d="M36.189 47.5906C36.189 47.5906 50.4321 54.8741 60.4981 78.1026C61.0203 79.31 59.7696 80.5174 58.7375 79.7693C53.0791 75.6748 40.7789 67.3808 23.6824 59.218C11.2243 53.26 4.69166 50.2678 1.37678 48.798C-0.213875 48.0893 -0.49315 45.7665 0.891084 44.6641C4.43667 41.8295 12.1957 37.6037 28.0051 35.7271C28.0051 35.7271 23.476 27.9842 13.7013 22.9842C12.9363 22.5905 13.1185 21.37 13.9563 21.2913C19.8454 20.7532 33.0685 20.9894 42.2117 31.9475C47.8215 39.0735 49.8857 46.5408 50.6385 50.5565C50.8449 51.6983 49.7278 52.5776 48.7929 52.0132C46.1458 50.3991 41.4589 48.0237 36.2012 47.5906H36.189Z" fill="#055346"/>
<path d="M55.3384 30.6613C55.302 29.4671 54.9377 28.3385 54.2092 27.2886C50.1779 21.4224 44.4224 16.2649 37.9627 13.9158C37.392 13.7059 36.5299 13.4828 36.0927 14.1258C35.5706 14.9001 35.0728 15.6744 34.5871 16.4618C34.5142 16.5799 34.6235 16.7374 34.7571 16.6849C35.4006 16.4093 35.7406 16.6849 36.3234 16.908C39.2255 18.0628 41.7875 19.8083 44.0096 22.1442C44.0217 22.1574 44.0217 22.1836 44.0096 22.1967C44.0096 22.2099 43.9731 22.223 43.961 22.1967C41.3504 20.7138 38.6183 19.6377 35.8984 18.4303C35.4492 18.2335 33.6157 17.2492 34.3321 16.4093C34.7085 15.9762 34.9878 15.5169 35.182 15.0313C35.2063 14.9657 35.1942 14.9001 35.1578 14.8476C32.62 11.5799 32.0857 7.57722 33.6885 3.66643C34.4899 1.69792 36.8941 0.398697 38.7398 0.0837342C39.3955 -0.0343768 40.3061 -0.0212533 41.484 0.0837342C43.9731 0.33308 45.8916 1.12049 48.1137 1.75041C48.3808 1.82915 48.6723 1.84228 49.0244 1.81603C51.6714 1.56668 54.6827 3.01026 56.6134 4.7688C58.4348 6.42236 59.6004 8.92893 61.4946 10.5694C65.3316 13.8896 68.0637 19.0865 67.8573 24.5065C67.7723 26.8818 65.7809 28.3647 63.8138 28.6535C62.4296 28.8503 60.4747 28.3123 59.054 27.9317C58.374 27.7479 57.7669 27.3805 57.2205 26.8293C57.1719 26.7768 57.1355 26.7899 57.0991 26.8424C56.2977 28.2991 57.9126 29.5196 58.9204 30.0577C60.7539 31.0288 63.5224 30.6482 65.1859 29.559C65.793 29.1653 66.4244 28.4697 67.0801 27.4724C67.1166 27.4199 67.1894 27.4592 67.1773 27.5117C67.1166 28.1285 66.5216 28.9422 66.1452 29.4015C63.5831 32.4593 59.2969 31.37 56.1884 30.3989C55.8727 30.2939 55.472 30.3201 55.3142 30.6482M57.8033 15.2019C58.2162 14.6245 58.6776 13.2859 58.7019 12.3935C58.7383 11.0156 58.714 9.6376 58.1919 8.36462C57.0748 5.64807 55.1927 3.90266 52.5214 3.1415C51.5014 2.85278 50.5908 2.76092 49.7894 2.87903C48.8058 3.02338 46.7902 3.74517 46.5109 4.96565C46.3773 5.58246 46.8145 6.52734 46.9845 7.19664C47.0087 7.27538 47.118 7.27538 47.1302 7.19664C47.3123 5.80555 47.9194 5.16251 48.9394 4.41447C50.7122 3.11525 52.8735 3.62706 54.5856 4.75568C56.1277 5.77931 57.6941 8.65334 57.9855 10.5562C58.1798 11.8555 57.1598 13.0628 56.2734 13.7452C54.0756 15.4644 52.06 17.2229 49.6679 17.5248C49.4008 17.551 49.243 17.6823 49.1944 17.8922C49.1822 17.9579 49.2065 18.0235 49.2672 18.0497C52.4607 19.6508 55.7756 17.9972 57.7912 15.1888M40.1847 1.05487C40.1847 1.05487 40.2333 0.949881 40.1847 0.949881C38.9948 0.674289 37.0155 1.65855 36.0199 2.60343C34.4414 4.09951 34.1621 5.71369 35.0242 7.7347C35.0485 7.80032 35.1092 7.82656 35.182 7.81344C35.2428 7.78719 35.2792 7.72158 35.267 7.65596C34.6842 4.04701 37.5255 2.13099 40.1969 1.06799M43.2567 2.6953C43.2567 2.6953 43.2932 2.62968 43.2567 2.61656C43.026 2.48532 42.7832 2.34097 42.5039 2.40658C41.6661 2.57719 39.7476 3.02338 39.3833 3.95515C38.7398 5.6087 38.8248 8.14153 40.2576 9.34888C40.3061 9.38825 40.3426 9.37513 40.3547 9.30951C40.634 8.07591 40.974 6.86855 41.3747 5.68744C41.569 5.11001 41.9211 4.74256 42.2854 4.28324C42.3582 4.19137 42.3339 4.16512 42.2368 4.19137C40.7676 4.51946 40.209 5.64807 39.5412 6.88168C39.4562 7.03916 39.2376 6.99979 39.189 6.82918C39.1162 6.5011 39.4319 5.88429 39.5776 5.56933C40.2576 4.11263 41.7511 3.18087 43.2446 2.72155M59.6247 24.5983C61.1425 24.7033 61.8589 23.5616 62.9153 22.6429C63.6317 22.0261 64.591 21.3175 65.0524 20.6088C65.8416 19.3752 65.708 17.7216 65.0888 16.4224C64.0203 14.1783 62.4782 12.8397 60.4261 11.5536C60.3897 11.5274 60.3654 11.5536 60.3654 11.593C60.3654 11.9604 60.4261 12.236 60.5718 12.3935C61.1668 13.0366 62.2596 13.7846 62.8789 14.4539C63.6317 15.2544 64.2145 16.1599 64.6517 17.1573C65.4045 18.9159 64.5788 20.9369 62.806 21.4224C59.6611 22.2755 56.0427 21.3043 52.8978 20.4382C52.8857 20.4382 52.8614 20.4382 52.8614 20.4644C52.8614 20.4776 52.8614 20.5038 52.8735 20.5038C53.5292 20.8844 54.1121 21.2256 54.6342 21.5537C56.0913 22.4723 57.9369 24.4671 59.6368 24.5852M46.1952 6.98666C46.1345 6.71107 46.0252 6.40923 45.8795 6.09427C45.8188 5.97616 45.7702 5.97616 45.7338 6.10739C44.8595 9.90007 47.0573 11.908 49.3644 14.3489C49.4008 14.3883 49.4251 14.3883 49.4372 14.3227C49.4372 14.2833 49.4372 14.257 49.4008 14.2177C47.8344 12.5772 46.7173 9.38825 46.1952 6.97354M44.2767 9.27014C44.1189 8.90269 44.0217 8.91581 43.9853 9.32264C43.7667 11.383 44.8717 12.446 46.0738 13.8765C46.0981 13.9027 46.1223 13.9027 46.1466 13.8765C46.1709 13.8633 46.1831 13.8371 46.1709 13.8109L44.2888 9.27014H44.2767Z" fill="#EF7A54"/>
<path d="M57.6305 14.7165C57.7034 14.6509 57.7034 14.5853 57.6548 14.5197C57.6305 14.4934 57.5941 14.4803 57.5577 14.4934C57.3513 14.5722 57.2784 14.7297 57.327 14.979C57.3391 15.0577 57.4484 15.0709 57.4848 15.0052L57.5577 14.8346C57.5577 14.8346 57.6062 14.7559 57.6427 14.7165H57.6305Z" fill="#EF7A54"/>
<path d="M32.7645 19.4543C33.0195 19.1394 33.3352 19.0869 33.6995 19.2837C35.108 20.058 36.5044 21.0423 37.8643 22.1578C41.5921 25.2286 45.0648 28.6014 48.3068 32.2759C49.6182 33.7589 50.8203 35.3337 51.9131 37.0004C51.9495 37.0529 51.9981 37.0791 52.0588 37.066C52.9816 36.8954 52.2288 35.1106 51.9374 34.5857C49.8732 30.9373 46.1333 27.5252 42.952 24.9399C40.135 22.6564 37.9008 20.7929 35.2537 18.9031C34.3795 18.2863 32.8374 17.2365 31.7688 17.9714C31.0524 18.4569 31.9996 19.5856 32.4974 19.9005C32.546 19.9268 32.5945 19.9268 32.631 19.8743C32.6917 19.7955 32.716 19.7037 32.7281 19.5987C32.7281 19.5331 32.7524 19.4806 32.7888 19.4281L32.7645 19.4543Z" fill="#EF7A54"/>
<path d="M94.6137 27.8474C94.4491 28.504 94.1866 29.283 93.8264 30.1845C93.4661 31.0748 93.0493 32.0541 92.5758 33.1225C92.1126 34.1798 91.6134 35.2982 91.0782 36.4779C90.543 37.6576 90.018 38.8539 89.5034 40.067C88.9888 41.2689 88.505 42.4709 88.0521 43.6728C87.6095 44.8747 87.239 46.0266 86.9405 47.1283C87.589 46.9837 88.2323 46.8167 88.8704 46.6275C89.5086 46.4384 90.1313 46.2102 90.7385 45.9431C91.3561 45.676 91.9582 45.3533 92.5449 44.9749C93.1316 44.5965 93.6977 44.1402 94.2432 43.606C94.1815 44.1959 94.13 44.7801 94.0888 45.3588C94.0579 45.9264 94.0425 46.494 94.0425 47.0616C94.0425 47.9853 94.0837 48.909 94.166 49.8327C94.2586 50.7453 94.3976 51.6523 94.5829 52.5537C93.2963 52.3534 91.9634 52.2032 90.5841 52.103C89.2049 52.0028 87.8103 51.9528 86.4001 51.9528C84.9592 51.9528 83.5285 52.0028 82.1081 52.103C80.698 52.2032 79.3239 52.3534 77.9858 52.5537C79.2827 49.126 80.6414 45.8596 82.0618 42.7547C83.4925 39.6385 85.0003 36.6615 86.5854 33.8236C85.2988 33.8904 83.9916 34.1464 82.6639 34.5915C81.3464 35.0367 80.0598 35.6377 78.8041 36.3944C78.8865 35.7712 78.9482 35.1647 78.9894 34.5749C79.0408 33.9739 79.0666 33.3841 79.0666 32.8053C79.0666 31.9929 79.0203 31.1972 78.9276 30.4182C78.8453 29.628 78.7012 28.849 78.4953 28.0811C79.6069 28.2146 80.7546 28.3204 81.9382 28.3983C83.1219 28.465 84.3262 28.4984 85.551 28.4984C87.1052 28.4984 88.644 28.4428 90.1673 28.3315C91.7009 28.2091 93.1831 28.0477 94.6137 27.8474Z" fill="#EF7A54"/>
<path d="M109.096 36.6949C109.096 37.5296 108.982 38.342 108.756 39.1322C108.54 39.9223 108.154 40.6235 107.598 41.2355C107.042 41.8476 106.291 42.3373 105.344 42.7046C104.407 43.0718 103.213 43.2555 101.762 43.2555C101.803 43.8008 101.906 44.2571 102.071 44.6243C102.246 44.9916 102.452 45.2865 102.688 45.5091C102.925 45.7317 103.177 45.8986 103.445 46.0099C103.713 46.1212 103.96 46.1991 104.186 46.2436C104.412 46.2881 104.603 46.3104 104.757 46.3104C104.912 46.3104 104.989 46.3104 104.989 46.3104C105.627 46.2325 106.198 46.0544 106.703 45.7762C106.919 45.6649 107.13 45.5258 107.336 45.3588C107.541 45.1808 107.727 44.9749 107.891 44.7412C108.066 44.4963 108.205 44.2237 108.308 43.9232C108.421 43.6116 108.488 43.2555 108.509 42.8548C108.777 43.5782 108.962 44.2571 109.065 44.8914C109.178 45.5146 109.235 46.0989 109.235 46.6442C109.235 47.6458 109.065 48.5696 108.725 49.4154C108.396 50.25 107.938 50.9734 107.351 51.5855C106.764 52.1976 106.064 52.6706 105.251 53.0044C104.448 53.3494 103.574 53.5219 102.627 53.5219C101.7 53.5219 100.805 53.3494 99.9402 53.0044C99.0859 52.6595 98.3243 52.1141 97.6552 51.3685C96.9965 50.6117 96.4664 49.6324 96.065 48.4304C95.6739 47.2285 95.4783 45.7706 95.4783 44.0567C95.4783 42.1982 95.7254 40.5511 96.2194 39.1155C96.7135 37.6798 97.3773 36.4779 98.2111 35.5097C99.0448 34.5303 100.007 33.7903 101.098 33.2895C102.199 32.7775 103.352 32.5216 104.557 32.5216C105.154 32.5216 105.725 32.5939 106.27 32.7386C106.826 32.8832 107.31 33.1225 107.722 33.4564C108.144 33.7903 108.478 34.2243 108.725 34.7585C108.972 35.2815 109.096 35.927 109.096 36.6949ZM101.7 40.501C101.988 40.4899 102.323 40.4287 102.704 40.3174C103.085 40.195 103.445 40.0281 103.785 39.8166C104.124 39.6052 104.407 39.3436 104.634 39.032C104.87 38.7204 104.989 38.3643 104.989 37.9636C104.989 37.7077 104.906 37.5018 104.742 37.346C104.577 37.1902 104.366 37.1123 104.109 37.1123C103.749 37.1123 103.424 37.2235 103.136 37.4461C102.858 37.6687 102.616 37.9469 102.41 38.2808C102.215 38.6147 102.055 38.9819 101.932 39.3826C101.808 39.7832 101.731 40.156 101.7 40.501Z" fill="#EF7A54"/>
<path d="M126.387 52.4536C126.192 52.4313 125.965 52.409 125.708 52.3868C125.492 52.3645 125.229 52.3478 124.921 52.3367C124.622 52.3256 124.293 52.32 123.933 52.32C123.418 52.32 122.852 52.3423 122.234 52.3868C121.627 52.4313 120.999 52.5148 120.351 52.6372L120.412 47.9463C120.021 49.6045 119.445 50.8844 118.683 51.7858C117.932 52.6873 117.047 53.138 116.028 53.138C115.709 53.138 115.348 53.0935 114.947 53.0044C114.546 52.9154 114.134 52.7429 113.712 52.487C113.3 52.2421 112.894 51.8971 112.492 51.452C112.101 51.0068 111.751 50.4337 111.442 49.7325C111.134 49.0203 110.887 48.1633 110.701 47.1617C110.516 46.149 110.423 44.9526 110.423 43.5726C110.423 41.703 110.598 40.106 110.948 38.7816C111.298 37.4461 111.746 36.3555 112.292 35.5097C112.837 34.6639 113.439 34.0462 114.098 33.6567C114.757 33.2672 115.4 33.0724 116.028 33.0724C116.563 33.0724 117.047 33.1559 117.479 33.3228C117.922 33.4786 118.313 33.6845 118.652 33.9405C118.992 34.1853 119.285 34.4636 119.532 34.7752C119.779 35.0868 119.98 35.3984 120.135 35.71C120.104 35.3316 120.057 34.931 119.996 34.5081C119.934 34.074 119.862 33.6289 119.779 33.1726C120.449 33.3173 121.128 33.4119 121.817 33.4564C122.507 33.5009 123.145 33.5232 123.732 33.5232C124.432 33.5232 124.998 33.5065 125.43 33.4731C125.677 33.462 125.904 33.4453 126.11 33.423C125.996 33.9795 125.893 34.6027 125.801 35.2927C125.708 35.9827 125.626 36.7227 125.554 37.5129C125.492 38.2919 125.44 39.1155 125.399 39.9835C125.368 40.8405 125.353 41.7197 125.353 42.6211C125.353 44.3016 125.43 45.9876 125.585 47.6792C125.739 49.3708 126.007 50.9623 126.387 52.4536ZM120.042 42.8882V40.1839C120.042 39.8834 120.027 39.5773 119.996 39.2657C119.965 38.9541 119.893 38.6703 119.779 38.4144C119.677 38.1584 119.522 37.9525 119.316 37.7967C119.11 37.6298 118.833 37.5463 118.483 37.5463C118.112 37.5463 117.803 37.6854 117.556 37.9636C117.32 38.2419 117.124 38.6258 116.97 39.1155C116.825 39.594 116.723 40.1672 116.661 40.8349C116.609 41.4915 116.584 42.2093 116.584 42.9884C116.584 43.4335 116.609 43.8842 116.661 44.3405C116.723 44.7968 116.82 45.2142 116.954 45.5925C117.088 45.9598 117.268 46.2603 117.494 46.494C117.721 46.7277 117.999 46.8446 118.328 46.8446C118.699 46.8446 118.997 46.7054 119.224 46.4272C119.45 46.149 119.62 45.804 119.733 45.3922C119.857 44.9805 119.939 44.552 119.98 44.1068C120.021 43.6505 120.042 43.2443 120.042 42.8882Z" fill="#EF7A54"/>
<path d="M134.894 52.1531C134.719 52.142 134.514 52.1253 134.277 52.103C134.071 52.0919 133.824 52.0807 133.536 52.0696C133.258 52.0585 132.939 52.0529 132.578 52.0529C131.909 52.0529 131.138 52.0863 130.263 52.1531C129.398 52.2087 128.456 52.32 127.437 52.487C127.581 52.1753 127.71 51.7469 127.823 51.2016C127.936 50.6451 128.034 50.0219 128.117 49.3319C128.199 48.6308 128.266 47.8907 128.317 47.1117C128.379 46.3215 128.425 45.5313 128.456 44.7412C128.497 43.951 128.523 43.1887 128.533 42.4542C128.554 41.7085 128.569 41.0408 128.58 40.451C128.59 39.85 128.595 39.3436 128.595 38.9318C128.595 38.5201 128.595 38.253 128.595 38.1306C128.575 36.272 128.528 34.547 128.456 32.9556C128.425 32.2878 128.389 31.6145 128.348 30.9357C128.307 30.2568 128.256 29.6225 128.194 29.0326C128.132 28.4428 128.06 27.9253 127.978 27.4801C127.906 27.035 127.818 26.7011 127.715 26.4785C128.549 26.6343 129.321 26.74 130.031 26.7957C130.741 26.8513 131.379 26.8792 131.945 26.8792C132.316 26.8792 132.651 26.8736 132.949 26.8625C133.248 26.8402 133.5 26.8179 133.706 26.7957C133.953 26.7734 134.169 26.7456 134.354 26.7122C134.261 27.213 134.174 27.8474 134.092 28.6153C134.019 29.3832 133.953 30.2457 133.891 31.2028C133.839 32.1599 133.798 33.1893 133.767 34.2911C133.736 35.3928 133.721 36.528 133.721 37.6965C133.721 39.032 133.742 40.3786 133.783 41.7364C133.824 43.0941 133.891 44.4073 133.983 45.676C134.076 46.9447 134.194 48.1355 134.339 49.2484C134.493 50.3502 134.678 51.3184 134.894 52.1531Z" fill="#EF7A54"/>
<path d="M152.989 52.1531C152.752 52.1308 152.479 52.1086 152.171 52.0863C151.903 52.0641 151.589 52.0474 151.229 52.0362C150.869 52.0251 150.462 52.0195 150.009 52.0195C149.248 52.0195 148.388 52.0529 147.431 52.1197C146.484 52.1753 145.48 52.2866 144.42 52.4536C144.781 50.8065 145.053 49.2206 145.239 47.6959C145.424 46.1713 145.563 44.8135 145.655 43.6227C145.758 42.2316 145.82 40.9239 145.841 39.6997C145.841 39.1767 145.83 38.6035 145.81 37.9803C145.789 37.4461 145.763 36.8285 145.733 36.1273C145.702 35.4151 145.661 34.6472 145.609 33.8236C145.125 34.3244 144.642 34.8642 144.158 35.4429C143.684 36.0105 143.226 36.6059 142.784 37.2291C142.341 37.8412 141.924 38.4644 141.533 39.0988C141.152 39.7331 140.818 40.3564 140.53 40.9685L140.9 28.2146C141.868 28.3371 142.887 28.4317 143.957 28.4984C145.038 28.5652 146.139 28.5986 147.261 28.5986C148.867 28.5986 150.457 28.5374 152.032 28.415C153.607 28.2925 155.053 28.1145 156.37 27.8808L156.941 40.7681C156.2 39.2435 155.377 37.8134 154.471 36.4779C153.576 35.1313 152.618 34.0073 151.599 33.1058C151.517 33.8626 151.455 34.6583 151.414 35.493C151.383 36.3165 151.368 37.1623 151.368 38.0304C151.368 39.1544 151.399 40.3118 151.46 41.5026C151.533 42.6823 151.63 43.8731 151.754 45.075C151.888 46.277 152.057 47.4733 152.263 48.6641C152.469 49.8549 152.711 51.0179 152.989 52.1531Z" fill="#EF7A54"/>
<path d="M173.94 52.4536C173.744 52.4313 173.518 52.409 173.261 52.3868C173.044 52.3645 172.782 52.3478 172.473 52.3367C172.175 52.3256 171.845 52.32 171.485 52.32C170.97 52.32 170.404 52.3423 169.787 52.3868C169.179 52.4313 168.552 52.5148 167.903 52.6372L167.965 47.9463C167.574 49.6045 166.997 50.8844 166.236 51.7858C165.484 52.6873 164.599 53.138 163.58 53.138C163.261 53.138 162.901 53.0935 162.499 53.0044C162.098 52.9154 161.686 52.7429 161.264 52.487C160.853 52.2421 160.446 51.8971 160.045 51.452C159.654 51.0068 159.304 50.4337 158.995 49.7325C158.686 49.0203 158.439 48.1633 158.254 47.1617C158.068 46.149 157.976 44.9526 157.976 43.5726C157.976 41.703 158.151 40.106 158.501 38.7816C158.851 37.4461 159.298 36.3555 159.844 35.5097C160.389 34.6639 160.992 34.0462 161.65 33.6567C162.309 33.2672 162.952 33.0724 163.58 33.0724C164.115 33.0724 164.599 33.1559 165.031 33.3228C165.474 33.4786 165.865 33.6845 166.205 33.9405C166.545 34.1853 166.838 34.4636 167.085 34.7752C167.332 35.0868 167.533 35.3984 167.687 35.71C167.656 35.3316 167.61 34.931 167.548 34.5081C167.486 34.074 167.414 33.6289 167.332 33.1726C168.001 33.3173 168.68 33.4119 169.37 33.4564C170.059 33.5009 170.698 33.5232 171.284 33.5232C171.984 33.5232 172.55 33.5065 172.983 33.4731C173.23 33.462 173.456 33.4453 173.662 33.423C173.549 33.9795 173.446 34.6027 173.353 35.2927C173.26 35.9827 173.178 36.7227 173.106 37.5129C173.044 38.2919 172.993 39.1155 172.952 39.9835C172.921 40.8405 172.905 41.7197 172.905 42.6211C172.905 44.3016 172.983 45.9876 173.137 47.6792C173.291 49.3708 173.559 50.9623 173.94 52.4536ZM167.594 42.8882V40.1839C167.594 39.8834 167.579 39.5773 167.548 39.2657C167.517 38.9541 167.445 38.6703 167.332 38.4144C167.229 38.1584 167.075 37.9525 166.869 37.7967C166.663 37.6298 166.385 37.5463 166.035 37.5463C165.664 37.5463 165.356 37.6854 165.109 37.9636C164.872 38.2419 164.676 38.6258 164.522 39.1155C164.378 39.594 164.275 40.1672 164.213 40.8349C164.162 41.4915 164.136 42.2093 164.136 42.9884C164.136 43.4335 164.162 43.8842 164.213 44.3405C164.275 44.7968 164.373 45.2142 164.507 45.5925C164.64 45.9598 164.82 46.2603 165.047 46.494C165.273 46.7277 165.551 46.8446 165.881 46.8446C166.251 46.8446 166.55 46.7054 166.776 46.4272C167.003 46.149 167.172 45.804 167.286 45.3922C167.409 44.9805 167.491 44.552 167.533 44.1068C167.574 43.6505 167.594 43.2443 167.594 42.8882Z" fill="#EF7A54"/>
<path d="M188.005 37.0455C188.005 37.4906 187.923 37.8913 187.758 38.2474C187.593 38.6035 187.372 38.9096 187.094 39.1656C186.816 39.4104 186.492 39.6052 186.121 39.7498C185.751 39.8834 185.36 39.9502 184.948 39.9502C184.474 39.9502 184.068 39.8889 183.728 39.7665C183.399 39.6441 183.116 39.4883 182.879 39.2991C182.653 39.0988 182.473 38.8818 182.339 38.6481C182.205 38.4032 182.097 38.1695 182.014 37.9469C181.942 37.7244 181.896 37.5185 181.876 37.3293C181.855 37.1401 181.845 36.9954 181.845 36.8952C181.937 37.0844 182.056 37.2013 182.2 37.2458C182.344 37.2903 182.457 37.3126 182.539 37.3126C182.776 37.3126 182.946 37.2458 183.049 37.1123C183.152 36.9787 183.203 36.8396 183.203 36.6949C183.203 36.6059 183.183 36.5057 183.142 36.3944C183.1 36.2832 183.028 36.183 182.925 36.094C182.822 35.9938 182.689 35.9103 182.524 35.8436C182.359 35.7768 182.153 35.7434 181.906 35.7434C181.752 35.7434 181.587 35.7768 181.412 35.8436C181.237 35.9103 181.078 36.0161 180.934 36.1607C180.8 36.2943 180.687 36.4668 180.594 36.6782C180.501 36.8786 180.455 37.1123 180.455 37.3794C180.455 37.8802 180.573 38.3031 180.81 38.6481C181.047 38.9931 181.356 39.2991 181.737 39.5662C182.128 39.8222 182.565 40.0614 183.049 40.284C183.543 40.5066 184.047 40.7403 184.562 40.9851C185.077 41.2189 185.576 41.486 186.06 41.7864C186.554 42.0758 186.991 42.4319 187.372 42.8548C187.763 43.2777 188.077 43.7841 188.314 44.3739C188.55 44.9638 188.669 45.6649 188.669 46.4773C188.669 47.5123 188.473 48.4471 188.082 49.2818C187.691 50.1165 187.166 50.8343 186.507 51.4353C185.859 52.0251 185.102 52.4758 184.238 52.7874C183.373 53.1102 182.462 53.2715 181.505 53.2715C180.63 53.2715 179.802 53.1436 179.019 52.8876C178.237 52.6316 177.553 52.2755 176.966 51.8192C176.379 51.3629 175.911 50.8232 175.561 50.1999C175.221 49.5767 175.051 48.9034 175.051 48.18C175.051 47.6347 175.134 47.1617 175.298 46.7611C175.463 46.3493 175.69 46.0099 175.978 45.7428C176.276 45.4757 176.621 45.2754 177.012 45.1418C177.414 45.0083 177.846 44.9415 178.309 44.9415C178.649 44.9415 178.988 44.9805 179.328 45.0584C179.668 45.1363 179.987 45.2531 180.285 45.4089C180.584 45.5647 180.851 45.7539 181.088 45.9765C181.325 46.1991 181.515 46.455 181.659 46.7444C181.577 46.7221 181.495 46.7054 181.412 46.6943C181.34 46.6832 181.263 46.6776 181.181 46.6776C180.954 46.6776 180.774 46.7444 180.64 46.8779C180.517 47.0004 180.455 47.2062 180.455 47.4956C180.455 47.8072 180.573 48.0687 180.81 48.2802C181.047 48.4916 181.309 48.5974 181.598 48.5974C181.762 48.5974 181.917 48.5584 182.061 48.4805C182.205 48.4026 182.328 48.3025 182.431 48.18C182.534 48.0465 182.611 47.9018 182.663 47.746C182.725 47.5902 182.756 47.4288 182.756 47.2619C182.756 46.9725 182.663 46.6609 182.478 46.3271C182.303 45.9932 182.05 45.715 181.721 45.4924C181.073 45.0584 180.46 44.6855 179.884 44.3739C179.307 44.0623 178.777 43.7674 178.294 43.4892C177.81 43.2109 177.372 42.9327 176.981 42.6545C176.6 42.3763 176.276 42.0535 176.009 41.6863C175.741 41.3079 175.535 40.8683 175.391 40.3675C175.247 39.8556 175.175 39.2379 175.175 38.5145C175.175 37.6576 175.329 36.8674 175.638 36.144C175.957 35.4095 176.41 34.7752 176.997 34.241C177.583 33.7068 178.304 33.2895 179.158 32.989C180.013 32.6774 180.98 32.5216 182.061 32.5216C183.162 32.5216 184.088 32.6607 184.84 32.9389C185.601 33.2171 186.214 33.5732 186.677 34.0073C187.151 34.4413 187.49 34.9254 187.696 35.4596C187.902 35.9938 188.005 36.5224 188.005 37.0455Z" fill="#EF7A54"/>
<path d="M201.993 31.954C201.91 32.4548 201.849 32.9445 201.807 33.423C201.777 33.9015 201.761 34.3912 201.761 34.892C201.761 35.3706 201.777 35.8547 201.807 36.3444C201.849 36.8229 201.91 37.307 201.993 37.7967C201.499 37.5185 200.938 37.3126 200.31 37.179C199.692 37.0455 199.059 36.9398 198.411 36.8619V38.2975C198.411 39.5551 198.431 40.8293 198.473 42.1203C198.514 43.4001 198.581 44.6466 198.673 45.8596C198.766 47.0616 198.884 48.2023 199.028 49.2818C199.183 50.3613 199.368 51.3184 199.584 52.1531C199.409 52.142 199.203 52.1253 198.967 52.103C198.761 52.0919 198.519 52.0807 198.241 52.0696C197.963 52.0585 197.644 52.0529 197.284 52.0529C196.615 52.0529 195.843 52.0863 194.968 52.1531C194.093 52.2087 193.146 52.32 192.127 52.487C192.477 50.3168 192.724 48.0632 192.868 45.7261C193.023 43.3779 193.1 41.0853 193.1 38.8484V36.8619C192.4 36.9175 191.705 37.0065 191.015 37.129C190.336 37.2402 189.693 37.3794 189.086 37.5463C189.127 37.4239 189.163 37.2625 189.194 37.0622C189.225 36.8619 189.245 36.656 189.255 36.4445C189.276 36.2331 189.286 36.0272 189.286 35.8269C189.297 35.6265 189.302 35.4596 189.302 35.3261C189.302 34.7585 189.281 34.1965 189.24 33.64C189.199 33.0836 189.147 32.5216 189.086 31.954C189.58 32.1766 190.166 32.3602 190.846 32.5049C191.525 32.6384 192.215 32.7386 192.914 32.8053C192.853 31.8371 192.781 30.9412 192.698 30.1177C192.616 29.2941 192.518 28.5485 192.405 27.8808C193.239 28.0366 194.011 28.1423 194.721 28.1979C195.431 28.2536 196.074 28.2814 196.651 28.2814C197.021 28.2814 197.351 28.2758 197.639 28.2647C197.937 28.2425 198.189 28.2202 198.395 28.1979C198.642 28.1757 198.859 28.1479 199.044 28.1145C198.931 28.6487 198.833 29.3164 198.75 30.1177C198.678 30.9079 198.606 31.7926 198.534 32.772C199.214 32.6941 199.852 32.5883 200.449 32.4548C201.056 32.3212 201.571 32.1543 201.993 31.954Z" fill="#EF7A54"/>
<path d="M215.934 36.6949C215.934 37.5296 215.821 38.342 215.594 39.1322C215.378 39.9223 214.992 40.6235 214.437 41.2355C213.881 41.8476 213.129 42.3373 212.182 42.7046C211.246 43.0718 210.052 43.2555 208.601 43.2555C208.642 43.8008 208.745 44.2571 208.909 44.6243C209.084 44.9916 209.29 45.2865 209.527 45.5091C209.764 45.7317 210.016 45.8986 210.283 46.0099C210.551 46.1212 210.798 46.1991 211.025 46.2436C211.251 46.2881 211.441 46.3104 211.596 46.3104C211.75 46.3104 211.827 46.3104 211.827 46.3104C212.466 46.2325 213.037 46.0544 213.541 45.7762C213.757 45.6649 213.968 45.5258 214.174 45.3588C214.38 45.1808 214.565 44.9749 214.73 44.7412C214.905 44.4963 215.044 44.2237 215.147 43.9232C215.26 43.6116 215.327 43.2555 215.347 42.8548C215.615 43.5782 215.8 44.2571 215.903 44.8914C216.017 45.5146 216.073 46.0989 216.073 46.6442C216.073 47.6458 215.903 48.5696 215.564 49.4154C215.234 50.25 214.776 50.9734 214.19 51.5855C213.603 52.1976 212.903 52.6706 212.09 53.0044C211.287 53.3494 210.412 53.5219 209.465 53.5219C208.539 53.5219 207.643 53.3494 206.779 53.0044C205.924 52.6595 205.163 52.1141 204.494 51.3685C203.835 50.6117 203.305 49.6324 202.904 48.4304C202.512 47.2285 202.317 45.7706 202.317 44.0567C202.317 42.1982 202.564 40.5511 203.058 39.1155C203.552 37.6798 204.216 36.4779 205.05 35.5097C205.883 34.5303 206.846 33.7903 207.937 33.2895C209.038 32.7775 210.191 32.5216 211.395 32.5216C211.992 32.5216 212.563 32.5939 213.109 32.7386C213.665 32.8832 214.148 33.1225 214.56 33.4564C214.982 33.7903 215.317 34.2243 215.564 34.7585C215.811 35.2815 215.934 35.927 215.934 36.6949ZM208.539 40.501C208.827 40.4899 209.162 40.4287 209.542 40.3174C209.923 40.195 210.283 40.0281 210.623 39.8166C210.963 39.6052 211.246 39.3436 211.472 39.032C211.709 38.7204 211.827 38.3643 211.827 37.9636C211.827 37.7077 211.745 37.5018 211.58 37.346C211.416 37.1902 211.205 37.1123 210.947 37.1123C210.587 37.1123 210.263 37.2235 209.975 37.4461C209.697 37.6687 209.455 37.9469 209.249 38.2808C209.053 38.6147 208.894 38.9819 208.77 39.3826C208.647 39.7832 208.57 40.156 208.539 40.501Z" fill="#EF7A54"/>
</svg>
